<!DOCTYPE svg PUBLIC "-//W3C//DTD SVG 1.1//EN" "http://www.w3.org/Graphics/SVG/1.1/DTD/svg11.dtd">
<!-- Uploaded to: SVG Repo, www.svgrepo.com, Transformed by: SVG Repo Mixer Tools -->
<svg height="800px" width="800px" version="1.1" id="Layer_1" xmlns="http://www.w3.org/2000/svg" xmlns:xlink="http://www.w3.org/1999/xlink" viewBox="0 0 512 512" xml:space="preserve" fill="#000000">
<g id="SVGRepo_bgCarrier" stroke-width="0"/>
<g id="SVGRepo_tracerCarrier" stroke-linecap="round" stroke-linejoin="round"/>
<g id="SVGRepo_iconCarrier"> <polygon style="fill:#4D4D4D;" points="69.538,484.733 42.27,512 0,469.73 27.267,442.462 70.875,441.472 "/> <path style="fill:#F7B239;" d="M512,54.535L75.67,490.865l-6.132-6.132l-42.27-42.27l-6.132-6.132l54.779-54.779 c0.36,0.386,0.72,0.771,1.093,1.144c12.894,12.895,33.785,12.895,46.667,0l-24.452-24.452L457.465,0L512,54.535z"/> <g style="opacity:0.25;"> <polygon style="fill:#4D4D4D;" points="492.62,35.155 56.29,471.485 69.538,484.733 75.67,490.865 512,54.535 "/> </g> <g> <path style="fill:#4D4D4D;" d="M374.15,111.722c-3.597,2.141-5.423,6.55-4.397,10.613c1.071,4.242,4.98,7.292,9.355,7.292 c4.293,0,8.125-2.94,9.279-7.064C390.695,114.311,381.44,107.383,374.15,111.722z"/> <path style="fill:#4D4D4D;" d="M307.939,177.59c-3.28,2.65-4.424,7.288-2.817,11.173c1.471,3.557,5.043,5.952,8.896,5.952 c4.831,0,8.949-3.701,9.564-8.464C324.672,177.803,314.515,172.277,307.939,177.59z"/> <path style="fill:#4D4D4D;" d="M340.821,144.785c-3.313,2.443-4.707,6.864-3.407,10.766c1.296,3.889,5.022,6.627,9.142,6.627 c4.628,0,8.709-3.442,9.503-7.999C357.526,145.775,347.668,139.736,340.821,144.785z"/> <path style="fill:#4D4D4D;" d="M449.138,46.635c-3.596-2.15-8.319-1.684-11.428,1.124c-6.406,5.788-2.141,16.791,6.474,16.791 c4.467,0,8.421-3.193,9.399-7.535C454.486,53.002,452.67,48.746,449.138,46.635z"/> <path style="fill:#4D4D4D;" d="M275.815,209.811c-3.367,2.431-4.768,6.892-3.483,10.826c1.274,3.898,5.045,6.618,9.148,6.618 c4.381,0,8.265-3.065,9.344-7.297C293.008,211.378,282.924,204.677,275.815,209.811z"/> <path style="fill:#4D4D4D;" d="M405.1,80.369c-6.297,5.843-2.02,16.72,6.545,16.72c4.637,0,8.692-3.431,9.492-7.989 C422.692,80.234,411.716,74.23,405.1,80.369z"/> <path style="fill:#4D4D4D;" d="M210.1,275.398c-6.635,5.69-2.428,16.933,6.302,16.933c4.725,0,8.818-3.56,9.534-8.219 C227.266,275.459,216.714,269.728,210.1,275.398z"/> <path style="fill:#4D4D4D;" d="M243.176,242.424c-3.496,2.596-4.812,7.396-3.145,11.416c1.478,3.562,5.05,5.952,8.909,5.952 c4.464,0,8.401-3.182,9.395-7.522C260.304,243.685,250.171,237.23,243.176,242.424z"/> </g> </g>
</svg>